<?xml version="1.0" encoding="UTF-8"?>
<svg id="_レイヤー_2" data-name="レイヤー 2" xmlns="http://www.w3.org/2000/svg" viewBox="0 0 214.05 356.11">
  <defs>
    <style>
      .cls-1 {
        fill: #ade0bf;
      }

      .cls-2 {
        fill: #fff;
      }
    </style>
  </defs>
  <g id="_レイヤー_1-2" data-name="レイヤー 1">
    <path class="cls-1" d="M214.05,183.01c0,94.06-107.03,173.1-107.03,173.1V6c0-3.32,2.69-6,6-6s6,2.68,6,6v70.65c53.46,5.96,95.03,51.31,95.03,106.36Z"/>
    <path class="cls-2" d="M107.03,75.98v280.13S0,277.07,0,183.01c0-.45,0-.9,0-1.35,6.15,15.06,20.94,25.67,38.21,25.67,22.79,0,41.26-18.47,41.26-41.26s-18.47-41.26-41.26-41.26c-10.16,0-19.47,3.67-26.65,9.77,17.67-34.77,53.78-58.59,95.46-58.59Z"/>
  </g>
</svg>