<svg width="36" height="64" viewBox="0 0 36 64" fill="none" xmlns="http://www.w3.org/2000/svg">
<path fill-rule="evenodd" clip-rule="evenodd" d="M35.0363 33.6318L35.0157 33.3581V33.0844L34.9847 32.8004L34.9692 32.5215L35.0105 32.2375L34.9898 31.9639L35.0208 31.685L34.9485 31.4113L34.9692 31.1376L34.9588 30.8588L34.8917 30.5903L34.9279 30.3114L34.8298 30.0481L34.8762 29.7744L34.8143 29.5059L34.8298 29.2322L34.7471 28.9689L34.7678 28.69L34.649 28.4318L34.6697 28.153L34.5974 27.8948L34.5819 27.6211L34.5509 27.3526L34.427 27.0996L34.4166 26.8259L34.2979 26.578V26.3043L34.2514 26.041L34.1998 25.7776L34.1275 25.5143L34.0036 25.2664L33.9364 25.0082L33.9158 24.7294L33.797 24.4867L33.6627 24.244L33.5956 23.9858L33.5698 23.707L33.4872 23.4539L33.3426 23.2164L33.2806 22.953L33.1102 22.731L33.0276 22.478L32.9398 22.2249L32.8314 21.9771L32.6919 21.7447L32.6506 21.471L32.5112 21.2387L32.3666 21.0115L32.2737 20.7584L32.1291 20.5312L31.969 20.3143L31.8812 20.0562L31.7418 19.8289L31.5249 19.6482L31.4526 19.3797L31.2512 19.1886L31.1015 18.9666L30.9621 18.7291L30.8485 18.4812L30.6368 18.3056L30.5232 18.0526L30.3373 17.8564L30.1823 17.6343L29.9448 17.4846L29.7641 17.2884L29.604 17.0663L29.4078 16.8804L29.2477 16.6635L29.0773 16.457L28.8707 16.2814L28.69 16.0852L28.4731 15.92L28.2769 15.7392L28.0807 15.5585L27.8432 15.4191L27.6624 15.2177L27.43 15.0834L27.2441 14.882L27.0169 14.7375L26.8259 14.5464L26.5677 14.4431L26.3405 14.2985L26.1443 14.1075L25.9067 13.9835L25.695 13.8131L25.4317 13.7305L25.2096 13.5859L24.9772 13.4465L24.7087 13.3845L24.5073 13.1883L24.2698 13.0592L23.9858 13.0437L23.7431 12.9301L23.5107 12.7907L23.2525 12.7081L23.0253 12.5583L22.7775 12.4499L22.5193 12.3776L22.2611 12.295L22.0029 12.2227L21.7447 12.1556L21.4762 12.1039L21.218 12.042L20.9495 11.9955L20.6965 11.9129L20.4383 11.8302L20.1594 11.8664L19.8961 11.8147L19.6379 11.7218L19.3694 11.6857L19.1009 11.6598L18.8323 11.6392H18.6258V11.6289L18.5741 11.5514L18.5896 11.4688L18.6258 11.3862L18.5948 11.3035L18.6413 11.2261L18.569 11.1435L18.6413 11.0608L18.6051 10.9834V10.9008V10.8181V10.7407L18.5948 10.6581L18.6103 10.5754L18.6568 10.5031L18.6929 10.4257L18.6619 10.3431L18.6516 10.2604L18.6981 10.183L18.7394 10.1107V10.0281L18.7239 9.94546V9.78538L18.8014 9.71825L18.8168 9.64079V9.55817L18.8375 9.48072L18.853 9.40326V9.32064L18.8891 9.25351L18.9098 9.17605L18.8943 9.08827L18.9305 9.01597L18.9459 8.93852L18.9614 8.86106V8.77328L19.0286 8.71131L19.0647 8.63902L19.0802 8.56156L19.1009 8.48411L19.0699 8.39116L19.0957 8.3137L19.1886 8.26723L19.1525 8.16911L19.2454 8.11748V8.02969L19.2971 7.96773L19.3384 7.9006L19.3229 7.80765L19.3797 7.74568V7.6579L19.4158 7.58561L19.4675 7.52364L19.5295 7.46684V7.37905L19.6121 7.32742L19.6379 7.25512L19.6792 7.18799L19.7205 7.12086V7.03308L19.8083 6.99177L19.8548 6.92464L19.8857 6.85235V6.7594L19.958 6.70776L19.989 6.63547L20.051 6.57867V6.48572L20.1336 6.44441L20.1801 6.38244L20.2369 6.32048L20.2524 6.23269L20.2937 6.16556L20.3763 6.12942L20.4021 6.0468L20.4538 5.99L20.4848 5.91254L20.588 5.89705L20.6242 5.81959L20.6965 5.77828L20.7274 5.70082L20.7739 5.63886L20.8256 5.57689L20.8824 5.52009L20.9598 5.48394L21.0166 5.42714L21.0424 5.33936L21.1302 5.3187L21.1509 5.22575L21.2283 5.18961L21.2696 5.11731L21.3161 5.05019L21.4039 5.02953L21.4401 4.94691L21.533 4.93658L21.5691 4.85396H21.6724L21.6931 4.75069L21.7602 4.70938L21.8222 4.65774H21.9203L21.9668 4.59061L22.0029 4.50282H22.0958L22.163 4.45635L22.1991 4.36857L22.2663 4.32726L22.3282 4.27045L22.4057 4.2498L22.478 4.20849L22.5503 4.17234L22.6019 4.11038L22.6639 4.05874L22.7362 4.02259H22.8239L22.8859 3.96063L22.9479 3.91415L23.0098 3.86251L23.0873 3.83669L23.1699 3.82637L23.2371 3.78506L23.2938 3.71793L23.3558 3.66113L23.4281 3.63014L23.5211 3.64563L23.5933 3.60949L23.6605 3.56301L23.7431 3.55269L23.7896 3.47007L23.8619 3.43392L23.929 3.39777L24.0013 3.35646L24.0994 3.38228L24.1459 3.2945L24.244 3.32548L24.2905 3.22737L24.3628 3.19639L24.4402 3.18089L24.5125 3.14475H24.5951L24.6623 3.09827H24.75L24.8068 3.02598H24.8946L24.9721 3.02082L25.0289 2.9382L25.1012 2.90721H25.1838L25.2767 2.93303L25.349 2.89689L25.4162 2.85558L25.4885 2.81426H25.5711L25.6279 2.74197L25.7208 2.77295L25.788 2.70583H25.8654L25.9532 2.71099L26.0255 2.69033L26.0875 2.60771H26.1649L26.263 2.64902L26.3302 2.61288L26.4025 2.5664L26.4799 2.55091L26.5574 2.54058L26.6245 2.48378L26.7174 2.52509L26.7794 2.44247L26.8569 2.43214L26.9343 2.41665H27.0169L27.0944 2.41149H27.2545L27.3216 2.35469L27.3991 2.34436L27.4868 2.39083L27.5591 2.3392L27.6418 2.37018L27.7192 2.3392L27.7863 2.27723H27.8638L27.9516 2.3237L28.0187 2.24108L28.1065 2.30821L28.1736 2.24108L28.2563 2.2669L28.3337 2.23076H28.4112L28.4886 2.22043H28.5661L28.6435 2.25658L28.721 2.22043L28.7985 2.23592H28.8759L28.9482 2.18945L29.0257 2.21527L29.1031 2.20494L29.1806 2.24625L29.258 2.18945L29.3355 2.22043L29.4078 2.17396L29.4956 2.21527L29.5575 2.13781L29.6505 2.17396L29.7124 2.11199L29.7899 2.0965L29.8467 2.0397L29.919 1.99839L29.9396 1.90544H30.0429L30.0997 1.84864L30.141 1.78151V1.68856L30.1875 1.62659L30.265 1.58012V1.4975L30.3166 1.43037L30.2908 1.34259L30.3269 1.27029L30.3063 1.19284L30.3218 1.11538L30.3631 1.03792L30.2959 0.965629L30.3373 0.883008L30.2805 0.815879L30.3011 0.728094L30.2805 0.650637L30.203 0.599V0.511215L30.0997 0.49056L30.0636 0.418267L30.0068 0.371793L29.981 0.284008L29.8932 0.268517L29.8674 0.170405H29.7796L29.6969 0.154914L29.6247 0.134259L29.5575 0.0929482L29.4956 0.0154914H29.4181L29.3355 0.0516379L29.258 0.0671293L29.1806 0.0774568L29.1031 0H29.0257L28.9534 0.072293L28.8707 0.0258189L28.7933 0.0413103L28.7158 0.0206552L28.6384 0.0309827L28.5609 0.0877844L28.4783 0.0103276L28.406 0.0568017L28.3234 0.0258189L28.2459 0.0361465L28.1685 0.0826206L28.0858 0.0516379L28.0084 0.0826206L27.9309 0.072293L27.8535 0.10844L27.7709 0.0774568L27.7037 0.144586L27.6211 0.129095L27.5385 0.103276L27.4714 0.19106L27.3887 0.201388H27.3113L27.2338 0.222043L27.1564 0.237534L27.0686 0.170405L26.9911 0.206552L26.9085 0.196224L26.8465 0.294336L26.7639 0.284008L26.6865 0.2995L26.609 0.309827L26.5367 0.345974L26.4489 0.304664H26.3663L26.2888 0.335646L26.2217 0.392448L26.1443 0.402776H26.0616L25.9893 0.428594L25.9067 0.438922H25.8293L25.7518 0.469905L25.6847 0.511215L25.6124 0.562853L25.5298 0.542198L25.4472 0.557689L25.3852 0.624818L25.3077 0.64031L25.2303 0.660965L25.1477 0.650637L25.0599 0.64031L24.9927 0.68162L24.9308 0.759077L24.843 0.743586L24.7655 0.759077L24.6881 0.774568L24.6158 0.810715L24.5487 0.862353H24.466L24.3834 0.877844L24.306 0.888172L24.2337 0.919154L24.182 1.0121L24.0839 0.975956L24.0168 1.02243L23.96 1.08956L23.8619 1.05858L23.8154 1.15669L23.7173 1.11538L23.6502 1.17218L23.5882 1.22382H23.5004L23.4488 1.29611L23.3816 1.33742H23.2938L23.2164 1.35291L23.1493 1.40455L23.077 1.43037L22.9944 1.4407L22.9221 1.47684L22.8498 1.50266L22.8033 1.59561L22.7258 1.61627L22.6587 1.65758L22.6019 1.71438L22.5193 1.73503H22.4367L22.3695 1.78151L22.2353 1.86413L22.1836 1.93642H22.0958L22.0391 2.00355L21.9409 1.99322L21.9048 2.08617H21.817L21.7344 2.10683L21.6828 2.17396L21.6363 2.24625L21.5537 2.27207L21.4917 2.31854L21.4297 2.36502L21.3471 2.38567L21.2955 2.4528L21.2438 2.51477H21.1509L21.0837 2.56124L21.0373 2.62837L20.9856 2.69033L20.9133 2.73164L20.8256 2.74714L20.7429 2.76779L20.681 2.81426L20.6242 2.87107L20.6035 2.96918L20.5312 3.00533H20.4331L20.4021 3.09827L20.3453 3.14991L20.2627 3.18089L20.2317 3.26351L20.1594 3.29966L20.0923 3.34614L20.051 3.41326L19.9994 3.47523L19.9271 3.51138L19.8806 3.57851L19.7928 3.60432L19.7618 3.68178L19.6637 3.69211L19.5966 3.73858L19.5501 3.80571L19.514 3.87801L19.4623 3.93997L19.3849 3.97612L19.3642 4.06907L19.2919 4.10521L19.2661 4.193L19.199 4.23431L19.1267 4.27562L19.0595 4.32209L18.9924 4.36857L18.9563 4.44086L18.884 4.48733L18.8478 4.55963L18.822 4.64225L18.7962 4.7197L18.7342 4.77134L18.6671 4.81781L18.6 4.86429L18.569 4.94175L18.5019 4.99338L18.4864 5.08117L18.4296 5.13281L18.3469 5.17412L18.3573 5.27739L18.2953 5.33419L18.2695 5.41165L18.1662 5.43231L18.1559 5.52009L18.0784 5.56656L18.0423 5.63886L18.0216 5.72148L17.9648 5.77828L17.908 5.83508L17.877 5.91254L17.8306 5.9745L17.8615 6.08294L17.7479 6.11393L17.7325 6.19138L17.7015 6.26884V6.35662L17.6137 6.4031V6.48572L17.593 6.56834L17.5517 6.63547L17.5001 6.69743L17.4898 6.78005L17.4536 6.85235L17.3607 6.89882L17.371 6.98661L17.3452 7.06406L17.278 7.12086L17.2625 7.20349V7.28611L17.1696 7.33774L17.1335 7.40487L17.118 7.48749L17.0921 7.55979L17.1076 7.65273L17.0663 7.71986V7.80765L17.0147 7.87478V7.9574L16.9579 8.01936V8.10198L16.9372 8.17944L16.9114 8.2569L16.8391 8.31886L16.8753 8.41181L16.8494 8.48927L16.8288 8.56673L16.7513 8.62869L16.7926 8.72164L16.7049 8.7836V8.86623L16.7462 8.95401L16.7203 9.03147L16.6429 9.09343L16.6635 9.18122L16.679 9.26384L16.6687 9.34129L16.6067 9.41359L16.6171 9.49621L16.5758 9.5685L16.5448 9.64596L16.5293 9.72341V9.80087L16.519 9.88349V9.96095L16.5138 10.0436L16.5241 10.121L16.488 10.1985L16.5138 10.2811L16.457 10.3586L16.4828 10.4412L16.5035 10.5186L16.488 10.6013L16.4725 10.6787V10.7562L16.4518 10.8336V10.9162L16.4673 10.9937L16.426 11.0763L16.4363 11.1538L16.4157 11.2312L16.4622 11.3139V11.3913L16.4312 11.4739L16.4208 11.5514V11.6185L16.1782 11.6547H15.9148L15.6463 11.6598L15.3881 11.7166L15.1196 11.7528L14.8614 11.8096L14.598 11.8457L14.3347 11.8767L14.0713 11.918L13.8131 11.9955L13.5549 12.0678L13.3071 12.1659L13.0489 12.233L12.7907 12.3053L12.5428 12.4034L12.2795 12.4551L12.0471 12.5945L11.7889 12.6719L11.5514 12.7907L11.288 12.863L11.0505 12.9766L10.8078 13.0954L10.5754 13.2193L10.3224 13.3122L10.1004 13.462L9.85767 13.5756L9.60981 13.6789L9.36195 13.7925L9.1554 13.9629L8.9127 14.0817L8.69582 14.2417L8.49443 14.4225L8.27239 14.5774L8.03486 14.7013L7.81798 14.8562L7.62175 15.0421L7.39455 15.1867L7.15701 15.321L7.01759 15.5637L6.78522 15.7082L6.589 15.8941L6.39277 16.0697L6.18622 16.2453L6.02098 16.457L5.8041 16.6171L5.60787 16.803L5.47362 17.0457L5.29288 17.2419L5.06051 17.3968L4.94175 17.6498L4.76618 17.8512L4.60094 18.0629L4.39439 18.2437L4.20849 18.4451L4.05358 18.6619L3.97612 18.9408L3.73858 19.106L3.66629 19.3797L3.50621 19.5966L3.32032 19.798L3.22737 20.0613L3.04664 20.2679L2.94336 20.5209L2.77295 20.7378L2.70583 21.0115L2.54575 21.2335L2.44247 21.4865L2.29272 21.7137L2.22559 21.9822L2.08617 22.2146L1.99839 22.478L1.88995 22.7258L1.77634 22.9737L1.70405 23.2319L1.54397 23.4643V23.7483L1.45103 24.0013L1.30128 24.2388L1.23415 24.5022L1.15152 24.7552L1.10505 25.0237L1.03792 25.2871L0.981121 25.5504L0.836533 25.7931L0.81588 26.0668L0.68162 26.5935L0.598999 26.8569V27.1305L0.578344 27.4042L0.49056 27.6624L0.433758 27.9309L0.423431 28.2046L0.320154 28.4628L0.284008 28.7313V29.005L0.263354 29.2787L0.227206 29.5472L0.206552 29.8209L0.180734 30.0894L0.103276 30.3579L0.0929484 30.6316L0.123932 30.9053V31.179L0.113604 31.4526L0.0206556 31.7212L0.0413113 31.9948L0.0206556 32.2685L0 32.537L0.0258185 32.8107V33.0844L0.0826205 33.3632L0 33.6421V33.9209L0.103276 34.1946L0.0413113 34.4683L0.0774576 34.742L0.103276 35.0157V35.2945L0.201387 35.563L0.19106 35.8367L0.211715 36.1104L0.180734 36.3892L0.309829 36.6474L0.294336 36.9263L0.335647 37.1999L0.371793 37.4684L0.392449 37.7421L0.454414 38.0107L0.53187 38.274L0.588672 38.5425L0.604164 38.8162L0.640311 39.0899L0.68162 39.3584L0.743585 39.6269L0.877845 39.8748L0.8985 40.1536L1.00694 40.4066L1.01727 40.6855L1.13087 40.9385L1.20316 41.2019L1.28062 41.4601V41.7492L1.45619 41.9816L1.52332 42.245L1.59045 42.5083L1.67307 42.7717L1.72471 43.0402L1.80216 43.3035L1.97773 43.5307L2.02937 43.8044L2.08101 44.0729L2.19461 44.3208L2.29789 44.5738L2.43214 44.8165L2.56124 45.0592L2.62837 45.3226L2.77812 45.5549L2.8659 45.8131L2.90721 46.092L3.07245 46.3192L3.17057 46.5722L3.33581 46.7943L3.36679 47.0834L3.54752 47.2951L3.60432 47.574L3.74375 47.8064L3.85219 48.0542L3.97612 48.2969L4.16718 48.5035L4.22914 48.7771L4.39955 48.994L4.51315 49.2419L4.67839 49.4588L4.81265 49.6911L4.92625 49.939L5.05018 50.1817L5.22575 50.3934L5.391 50.6051L5.52525 50.8375L5.63369 51.0957L5.79377 51.3126L5.94352 51.5398L6.04163 51.798L6.24302 51.989L6.41859 52.2007L6.51154 52.4641L6.71809 52.65L6.80071 52.9237L7.11054 53.3678L7.31709 53.5537L7.46168 53.7809L7.61659 54.0029L7.75085 54.2404L7.93158 54.4367L8.08649 54.6639L8.26723 54.8601L8.45312 55.0563L8.60287 55.2835L8.74746 55.5107L8.94885 55.6966L9.06761 55.9445L9.29998 56.1046L9.44457 56.3318L9.64596 56.5125L9.7544 56.7707L9.9971 56.9204L10.152 57.1373L10.3069 57.3594L10.5238 57.5246L10.6477 57.7673L10.8285 57.9635L11.0608 58.1133L11.2157 58.3302L11.4016 58.5212L11.5411 58.7536L11.7683 58.9033L11.8974 59.146L12.0988 59.3216L12.3208 59.4714L12.4706 59.6934L12.6461 59.8896L12.8165 60.091L13.2606 60.4008L13.4259 60.6177L13.5808 60.8346L13.7976 60.9998L13.9629 61.2116L14.1798 61.3716L14.3915 61.5369L14.5464 61.7537L14.7529 61.9242L14.9492 62.0997L15.2022 62.2133L15.3984 62.3941L15.5637 62.6006L15.7392 62.8072L15.9819 62.9259L16.173 63.1015L16.3382 63.3132L16.5499 63.4733L16.7823 63.6024L16.9889 63.7573L17.1954 63.9225L17.4949 64L17.8254 63.969L18.0113 63.8193L18.1765 63.6385L18.3728 63.4785L18.6 63.3287L18.8117 63.179L18.9976 62.9982L19.2145 62.8433L19.3797 62.6264L19.6017 62.4715L19.767 62.2443L20.02 62.1307L20.1749 61.9035L20.4021 61.7589L20.5829 61.5679L20.7688 61.3665L21.0115 61.2374L21.1819 61.0257L21.3729 60.8398L21.5485 60.6332L21.7809 60.4835L21.9203 60.2356L22.1372 60.0704L22.3334 59.8845L22.5451 59.7089L22.6897 59.4714L22.9272 59.3164L23.0718 59.0789L23.2629 58.8827L23.5056 58.7381L23.6656 58.5109L23.8464 58.3043L24.0219 58.0926L24.2233 57.9119L24.3886 57.695L24.559 57.4833L24.7294 57.2767L24.8946 57.0599L25.1115 56.8895L25.3129 56.7087L25.4317 56.4557L25.6176 56.2595L25.8035 56.0581L25.9325 55.8154L26.1443 55.6347L26.2888 55.4075L26.4902 55.2164L26.671 55.015L26.7846 54.762L26.9911 54.5761L27.1151 54.3282L27.3371 54.1578L27.4249 53.8841L27.6624 53.7241L27.745 53.4452L27.9309 53.2438L28.1375 53.0579L28.2149 52.7842L28.3853 52.5725L28.5299 52.3402L28.7365 52.1543L28.8811 51.9271L28.9947 51.674L29.1186 51.4313L29.2942 51.2196L29.4904 51.0234L29.5988 50.7704L29.7331 50.5328L29.9035 50.3211L30.0016 50.0629L30.1927 49.8615L30.2701 49.593L30.4612 49.3865L30.5128 49.1025L30.7091 48.9011L30.8278 48.6584L30.9879 48.4312L31.0395 48.1523L31.2306 47.9458L31.3649 47.7082L31.401 47.4242L31.5198 47.1764L31.7057 46.9698L31.8244 46.722L31.8916 46.4534L32.0103 46.2107L32.1291 45.968L32.2066 45.7047L32.3253 45.4568L32.4389 45.209L32.6042 44.9869L32.6248 44.7029L32.7178 44.4447L32.821 44.1969L32.914 43.9438L33.0999 43.7218L33.1102 43.4378L33.2806 43.2106L33.3374 42.9421L33.3942 42.6787L33.4665 42.4154L33.5801 42.1675L33.6524 41.9093L33.7815 41.6614L33.8125 41.3878L33.9054 41.1347L33.9571 40.8662L34.0707 40.6184L34.143 40.355V40.0762L34.2411 39.818L34.3031 39.5546L34.3134 39.2809L34.3857 39.0176L34.4889 38.7646L34.5148 38.4909L34.5303 38.2172L34.5819 37.9538L34.6593 37.6905L34.6852 37.4168L34.7007 37.1483L34.7988 36.8849L34.8298 36.6164L34.8711 36.3479L34.8814 36.0742L34.8969 35.8005L34.8659 35.5269L34.933 35.2584L34.9588 34.9898L34.9795 34.7162L35.0105 34.4476L35.026 34.174L34.9692 33.9003L35.0363 33.6318ZM16.3279 30.0997L16.2814 30.1514L16.2504 30.2288L16.2143 30.2959L16.1627 30.3579L16.1007 30.3992L16.0542 30.4612H15.9561L15.9251 30.5386L15.8838 30.6058L15.8167 30.6471L15.7702 30.7039L15.6928 30.7349L15.6153 30.7555L15.5843 30.8381L15.512 30.8691L15.4501 30.9104L15.3829 30.9414L15.3106 30.9724L15.2332 30.9879L15.2022 31.0808L15.1247 31.0963L15.0473 31.1118L14.9802 31.1376L14.9285 31.2048L14.8562 31.2306L14.7891 31.2667H14.7065L14.6548 31.339L14.5825 31.3494L14.5154 31.3958L14.4276 31.37L14.3657 31.4165H14.2882L14.2262 31.4836L14.1436 31.4681L14.0817 31.5094L14.0042 31.5249L13.9216 31.5043L13.8596 31.5662L13.7822 31.5507L13.7099 31.5869H13.6376L13.5653 31.6179L13.4878 31.5972L13.4104 31.6179L13.3329 31.5869L13.2606 31.6385L13.1832 31.6076L13.1109 31.5972L13.0334 31.623L12.9611 31.6695L12.8837 31.6489L12.8114 31.6076L12.7339 31.6489L12.6564 31.6282L12.579 31.6385L12.5067 31.6179L12.4292 31.6282L12.3621 31.5662H12.2847H12.2124L12.1297 31.5817L12.0626 31.5353L11.9903 31.5094L11.918 31.4991L11.8354 31.5146L11.7631 31.5043L11.6908 31.4785L11.6237 31.4423L11.5411 31.4526L11.4739 31.4165L11.3965 31.401L11.3294 31.3649L11.2726 31.3029L11.2003 31.2822L11.1435 31.2254L11.0712 31.2099L11.004 31.1686H10.9162L10.8646 31.117H10.7768L10.72 31.0654L10.6477 31.0447L10.5858 30.9982L10.529 30.9414L10.4722 30.8898L10.3947 30.8743L10.3586 30.7968L10.2863 30.771L10.2346 30.7091L10.1468 30.6987L10.0849 30.6626L10.0591 30.5696L9.9971 30.5283L9.93513 30.4818L9.868 30.4457L9.83185 30.3786L9.76989 30.3321L9.72858 30.2701L9.66145 30.2288L9.6253 30.1617L9.53235 30.141L9.52203 30.0533L9.46006 30.0068L9.3981 29.9603L9.35678 29.8932L9.30515 29.8415V29.7486L9.24835 29.6969L9.19154 29.6453L9.12958 29.5937L9.0831 29.5317V29.4491L9.01597 29.3974V29.3097L8.92819 29.2735V29.1909L8.91786 29.1134L8.86623 29.0566L8.80942 28.9998L8.76295 28.9379L8.77328 28.8501V28.7726L8.71648 28.7107L8.67517 28.6435V28.5661L8.62869 28.5041L8.64418 28.4215L8.60804 28.3544L8.54091 28.2924L8.57705 28.2098L8.55124 28.1375L8.54091 28.06L8.4996 27.9929L8.52025 27.9154L8.47378 27.8483V27.7709L8.48411 27.6934L8.4428 27.6211L8.41181 27.5488L8.43763 27.4714L8.39116 27.3991L8.4428 27.3216L8.38083 27.2493L8.42214 27.1719L8.39632 27.0944L8.4273 27.0221L8.38599 26.9447L8.40148 26.8672L8.41698 26.7949V26.7174L8.44796 26.6451L8.4273 26.5677L8.47378 26.4954L8.44796 26.4179L8.46861 26.3456L8.4996 26.2734L8.47894 26.1907L8.50992 26.1236L8.55124 26.0565V25.979L8.59254 25.9119L8.6132 25.8396L8.59254 25.7518L8.66484 25.695L8.64418 25.6124L8.67 25.5401L8.73197 25.4833L8.75262 25.411L8.73713 25.3232L8.76295 25.2509L8.8559 25.2096V25.127L8.89205 25.0599L8.94368 25.0031L8.95918 24.9256L8.9695 24.843L9.01081 24.781L9.0986 24.7449L9.10892 24.6623L9.17089 24.6158L9.18638 24.5332L9.24318 24.4815L9.25351 24.3989L9.33097 24.3628L9.3981 24.3163L9.48072 24.1924L9.50654 24.1149L9.57366 24.0736L9.64079 24.0374L9.66661 23.96L9.71309 23.898L9.7544 23.836L9.84218 23.8102L9.87833 23.7431L9.94546 23.707L9.9816 23.6347L10.0487 23.5933L10.121 23.5675L10.1882 23.5314L10.2346 23.4694L10.3018 23.4333L10.3534 23.3765L10.4205 23.3403L10.4722 23.2887L10.5341 23.2422H10.6219L10.6736 23.1854L10.7149 23.1028L10.7872 23.0821L10.8801 23.0925L10.9162 22.9995L10.9834 22.9685L11.0608 22.9479L11.1228 22.9066L11.1899 22.8756L11.2674 22.8601L11.3294 22.8136L11.4068 22.7981L11.4791 22.7826L11.5617 22.7981L11.6289 22.7671L11.7063 22.7517L11.7734 22.7207L11.8354 22.6639L11.9129 22.6535L11.98 22.6277L12.0574 22.6122H12.1349L12.2124 22.6432L12.2847 22.6019L12.3569 22.5864L12.4292 22.5554L12.5067 22.5761L12.5842 22.5967H12.6616L12.7339 22.5812L12.8062 22.5554L12.8837 22.5348L12.9611 22.5554L13.0334 22.5761L13.1109 22.5451H13.1832L13.2606 22.5554H13.3381L13.4155 22.5399L13.4827 22.5916L13.5653 22.5658L13.6324 22.6226L13.715 22.5812L13.7822 22.6484L13.8596 22.6226L13.9267 22.6845L14.0042 22.6742H14.0817L14.1436 22.731H14.2262L14.2882 22.7826H14.3657L14.4328 22.8239H14.5102H14.5929L14.6548 22.8653L14.722 22.9066L14.7788 22.9582L14.8459 22.9995L14.9337 22.984L14.9853 23.0512L15.0576 23.0718L15.1402 23.0821L15.1815 23.1596L15.259 23.1751L15.3416 23.1854L15.3778 23.2732L15.4449 23.3093L15.5069 23.3507L15.574 23.3816L15.636 23.4229L15.7082 23.4488L15.7341 23.5417L15.796 23.583L15.8528 23.6347L15.9096 23.6811L15.9923 23.7018L16.0336 23.7689L16.1007 23.8102L16.1678 23.8464L16.2195 23.898L16.2659 23.96L16.2814 24.0478L16.364 24.0736L16.3795 24.1614L16.4312 24.1717H16.4725L16.5293 24.2285V24.3266L16.6119 24.3576L16.6481 24.4247L16.7049 24.4764V24.5693L16.7513 24.6261L16.7978 24.6881L16.8598 24.7345L16.8753 24.8172L16.9476 24.8585L16.9579 24.9411L17.0095 24.9979V25.0805L17.087 25.127L17.1076 25.1993L17.1386 25.2716L17.1283 25.3542L17.1696 25.4213L17.2057 25.4833L17.2625 25.5453L17.2832 25.6176L17.2522 25.7053L17.3245 25.7621L17.309 25.8448L17.3348 25.9171V25.9945L17.3865 26.0565L17.4226 26.1236V26.2011L17.3968 26.2837L17.4588 26.3508L17.4794 26.4231L17.4949 26.4954L17.4536 26.578L17.5104 26.6451V26.7226L17.4794 26.8001L17.5207 26.8724V26.9498L17.5104 27.0273L17.4743 27.0996L17.5207 27.177L17.4691 27.2493L17.4794 27.3268L17.5207 27.4042L17.4691 27.4765L17.5156 27.5591L17.4484 27.6263L17.4898 27.7037L17.4433 27.776V27.8535V27.9309L17.402 27.9981L17.3813 28.0704L17.4175 28.153L17.3503 28.2149V28.2924V28.3699L17.34 28.4473L17.278 28.5041V28.5867L17.2522 28.659L17.2057 28.721L17.1593 28.783L17.1799 28.8707L17.1438 28.9379L17.0663 28.9895L17.056 29.067L17.0147 29.1289L17.0044 29.2064L16.9682 29.2735L16.9062 29.3252L16.8701 29.3923V29.4801L16.7823 29.5111L16.741 29.573L16.7255 29.6556L16.6532 29.6969L16.6429 29.7796L16.5964 29.8415L16.5241 29.8777L16.4983 29.95L16.4467 30.0068L16.4363 30.0481L16.4208 30.0842L16.3331 30.1101L16.3279 30.0997Z" fill="white"/>
</svg>
