<?xml version="1.0" encoding="UTF-8"?>
<svg id="_レイヤー_2" data-name="レイヤー 2" xmlns="http://www.w3.org/2000/svg" viewBox="0 0 227.63 393.47">
  <defs>
    <style>
      .cls-1 {
        fill: #009245;
      }

      .cls-2 {
        fill: #4ac682;
      }
    </style>
  </defs>
  <g id="_レイヤー_1-2" data-name="レイヤー 1">
    <g>
      <g>
        <path class="cls-1" d="M227.63,202.08c0,97.4-115.11,191.39-115.11,191.39V86.98c63.57,0,115.11,51.53,115.11,115.1Z"/>
        <path class="cls-2" d="M112.52,86.98v306.49S17.04,315.51,0,228.02c7.08,5,15.72,7.93,25.05,7.93,24.03,0,43.52-19.48,43.52-43.51s-19.49-43.52-43.52-43.52c-5.73,0-11.21,1.11-16.22,3.13,18.61-38.51,58.05-65.07,103.69-65.07Z"/>
      </g>
      <path class="cls-1" d="M117.52,114.38c-2.76,0-5-2.24-5-5V5c0-2.76,2.24-5,5-5s5,2.24,5,5v104.38c0,2.76-2.24,5-5,5Z"/>
    </g>
  </g>
</svg>