<?xml version="1.0" encoding="UTF-8"?>
<svg id="_レイヤー_2" data-name="レイヤー 2" xmlns="http://www.w3.org/2000/svg" viewBox="0 0 731.1 135.41">
  <defs>
    <style>
      .cls-1 {
        fill: #efeff0;
      }
    </style>
  </defs>
  <g id="_レイヤー_2-2" data-name="レイヤー 2">
    <g>
      <path class="cls-1" d="M139.51,123.41c0,1.03-12.74,2.78-18.3,7.76-.73.59-1.46.88-2.2.88-3.07,0-14.93-5.56-25.77-19.47-20.93,19.76-46.11,22.11-48.16,22.11-.59,0-.88,0-.88-.15,0-.44,1.9-1.32,5.42-2.34,3.51-1.17,6.88-2.64,10.25-4.39h-.29c-2.78,0-5.27-1.61-5.27-5.12v-.59c.44-5.12.59-11.27.73-17.71-14.2,8.49-31.62,16.98-39.23,20.5-1.32.59-1.61,2.64-2.93,2.64-2.34,0-11.27-11.42-11.27-13.03,0-.44.44-.44,1.46-.59,7.03-.29,14.93-1.9,21.67-3.66.29-12.74.44-31.18.44-38.94,0-5.12,0-7.91-.73-12.74-6.44.29-12.88.59-17.71,1.03h-.15c-2.49,0-6.59-5.56-6.59-7.47,14.64,1.76,42.75,2.2,51.38,2.2h58.85c.88,0,1.9-.59,2.34-1.32,4.54-6.59,8.05-10.83,9.52-10.83.29,0,.59,0,.88.15,6,2.05,14.2,10.98,14.2,14.05,0,.88-.59,1.61-3.07,1.61h-64.41c.73.29,1.02.88,1.02,1.32,0,.73-.73,1.61-2.49,2.34-1.76.73-2.05,1.76-2.05,19.47,0,13.91.59,30.74,1.17,40.55,0,.73-.15,1.46-.44,2.05,7.76-5.12,14.79-11.86,20.64-19.18-5.27-8.64-8.93-18.59-10.39-28.84l-3.81.44h-.15c-1.9,0-6.29-5.42-6.29-7.03,10.25,1.61,22.54,2.05,28.99,2.05h6.44c1.03,0,1.76-1.03,2.05-1.32,1.02-1.02,3.37-3.37,4.83-3.37,2.78,0,13.03,7.76,13.03,9.66,0,1.02-1.03,1.9-3.07,2.78-2.64,1.02-3.37,1.17-4.1,2.78-4.1,8.64-9.22,16.84-15.37,24.16,9.96,8.2,23.13,14.2,38.94,17.27.59.15.88.29.88.29ZM112.87,10.83c0,1.17-1.03,2.2-3.07,3.51-2.78,1.76-3.07,2.05-3.07,6.88,0,6.15.59,16.4,1.02,21.67v.44c0,3.66-4.1,5.71-7.61,5.71-3.07,0-5.86-1.61-5.86-4.98v-1.76h-50.21v1.32c0,3.07-3.66,5.71-7.91,5.71-3.22,0-6-1.46-6-4.83v-.59c.88-8.2,1.17-21.67,1.17-26.79,0-2.34-.29-10.25-1.46-15.52,0-.29-.15-.59-.15-.73,0-.44.15-.44.44-.44,1.02,0,12.3,3.66,16.69,6.73.29.15.44.44.59.59h43.92c.59,0,1.17-.15,1.9-1.02,2.2-2.78,4.1-5.27,5.71-5.27,1.9,0,13.91,6.44,13.91,9.37ZM55.34,74.51h-19.18c-.15,4.1-.15,8.49-.15,13.03h19.32v-13.03ZM36.16,91.06c0,5.42,0,11.13.15,16.1,6.15-1.76,12.59-3.66,18.88-5.71.15-3.51.15-7.03.15-10.39h-19.18ZM55.34,70.56c0-4.83-.15-7.61-.73-12.59h-3.81c-2.49,0-6.44.15-11.13.15.73.29,1.02.73,1.02,1.17,0,.73-.88,1.61-2.63,2.34-1.32.59-1.76,1.76-1.76,9.37h19.03v-.44ZM94.28,13.61c0-1.32-.73-2.05-2.2-2.05h-45.53l-1.02.73c-1.61.88-1.61,1.46-1.61,10.39h50.51c0-3.37,0-6.59-.15-9.08ZM43.92,26.5c0,3.95.15,8.34.15,12h50.21c0-3.66.15-7.9.15-12h-50.51ZM103.06,75.83c0-.88-.44-1.02-1.17-1.02h-6.73c-4.25,0-9.95,0-16.1.59,2.49,8.34,6.88,16.25,13.03,23.13,5.86-8.49,10.98-20.2,10.98-22.69Z"/>
      <path class="cls-1" d="M275.66,75.1c0,.73-1.17,1.61-2.93,2.34-1.9.73-2.05.73-2.2,3.22,0,1.32-.15,4.83-.15,9.08,0,11.57.29,18.74.73,26.79v1.02c0,14.49-16.54,16.54-20.79,16.54-1.76,0-2.93-.73-4.25-2.64-2.64-4.25-17.86-10.69-17.86-11.86,0-.15.29-.29.73-.29.29,0,.59,0,1.17.15,7.9,1.17,13.47,1.76,17.57,1.76,8.2,0,10.1-2.2,10.25-6.15.15-2.93.29-9.96.29-17.13,0-13.91-.29-20.49-.88-24.59h-42.89c-8.05,0-28.84.29-41.87,1.61h-.15c-2.64,0-6.73-5.86-6.73-7.61,14.93,1.76,40.99,2.34,49.33,2.34h56.22c1.02,0,2.05-.59,2.49-1.32,3.37-4.98,6.73-10.1,8.93-10.1.44,0,.73.15,1.03.15,6.73,2.49,14.2,11.27,14.2,13.18,0,.88-.73,1.76-3.22,1.76h-21.81l.88.29c1.32.44,1.9.88,1.9,1.46ZM194.27,19.91h31.77c0-6.29-.88-14.49-1.9-18.3-.15-.59-.29-.88-.29-1.17s.15-.44.73-.44c1.02,0,21.08,2.2,21.08,6.29,0,1.02-1.03,2.34-3.81,3.66-2.34,1.17-2.49,1.17-3.07,9.95h32.35c.59,0,1.61-.29,2.05-.88,3.51-3.95,5.27-5.12,5.86-5.12,2.49,0,15.08,8.2,15.08,13.18,0,1.9-1.9,3.37-6.44,3.37h-.88c-5.12,0-10.25,2.34-15.52,4.83,4.39,4.1,4.54,5.86,4.54,6.15,0,1.02-.73,1.76-3.07,1.76h-37.77c-.59,1.46-1.17,2.93-2.05,4.25,21.23.29,34.7,5.42,34.7,13.47,0,2.93-2.2,5.42-5.42,5.42-2.05,0-4.54-1.02-7.17-3.37-6.29-5.86-14.35-10.25-23.42-13.61-2.2,2.93-12.44,16.4-43.04,16.4-1.76,0-2.78-.29-2.78-.73s1.03-.88,3.07-1.17c21.37-3.51,30.6-11.42,34.11-20.49-8.05.15-18.59.44-27.96,1.32h-.15c-2.05,0-4.83-3.51-5.86-5.86-3.22,3.37-6.73,4.83-9.52,4.83-4.25,0-7.32-2.78-7.32-6.44,0-2.64,1.46-5.56,5.12-8.34,7.32-5.56,11.56-9.81,12.74-17.42.29-1.9.59-2.93,1.02-2.93,1.02,0,2.64,6,3.22,11.42ZM189.87,37.62c11.13,1.32,25.03,1.9,34.26,2.05.44-2.05.73-4.83.73-8.49,0-1.46-.15-2.93-.29-4.83v-.73c0-.29,0-.44.29-.44s17.57,1.9,17.57,4.98c0,.88-1.03,1.9-2.93,2.34-1.9.59-2.49.44-2.78,2.93-.15,1.46-.29,2.78-.59,4.25h14.93c.73,0,1.76-.44,2.2-1.17,6-9.22,7.76-9.37,8.2-9.37s.73.15,1.02.15c1.61.59,3.81,1.9,5.86,3.51,2.2-3.81,4.25-7.9,4.25-8.49s-.44-.73-.88-.73h-77.44c-.15,5.56-1.76,10.54-4.39,14.05ZM204.51,115.07v.15c0,3.22-3.66,5.42-7.61,5.42-3.07,0-5.71-1.32-5.71-4.54v-.59c.73-6.88,1.17-16.84,1.17-22.84,0-1.76-.29-8.93-1.32-13.61,0-.29-.15-.59-.15-.73,0-.29.15-.44.44-.44.88,0,10.1,3.37,15.52,6.73h18.59c.59,0,1.32,0,1.9-.88,1.32-1.76,3.95-4.98,5.42-4.98,1.9,0,12.74,5.42,12.74,8.64,0,1.02-.73,2.05-2.64,3.07-2.2,1.32-3.07,1.32-3.07,3.81,0,3.51.44,9.22,1.02,15.23v.44c0,3.22-3.81,5.12-7.32,5.12-2.78,0-5.42-1.32-5.42-4.39v-3.66h-23.72c0,3.07.15,5.86.15,8.05ZM205.83,89.01c-1.46.88-1.46,2.93-1.46,14.35h23.86v-12.88c0-1.61-.73-2.05-2.2-2.05h-19.47l-.73.59Z"/>
      <path class="cls-1" d="M397.75,63.24c0,28.99-17.27,57.83-44.94,70.42-2.2,1.02-4.25,1.76-4.98,1.76-.15,0-.29,0-.29-.15,0-.44,1.32-1.46,4.39-3.81,22.4-16.69,32.65-43.92,32.65-67.49,0-14.79-4.68-34.55-14.93-34.55-7.32,0-14.49,10.69-14.49,24.01,0,5.86,1.32,10.54,4.68,18.45.73,1.61,1.02,3.22,1.02,4.83,0,4.83-2.93,8.78-6.29,8.78-6.44,0-10.54-14.79-10.54-23.42,0-10.69,3.51-21.52,5.42-32.21.59-3.22,1.46-8.2,1.46-12.3,0-3.22-.59-5.86-2.2-6.59-1.46-.73-2.93-1.46-2.93-2.64,0-.73,1.76-3.95,5.56-3.95s9.22,3.22,9.22,11.71c0,3.07-.59,5.42-4.25,18.3-.29,1.02-.44,1.76-.44,2.05,0,.15.15.29.15.29.15,0,.59-.73,1.17-2.05,4.1-9.08,10.25-13.03,16.4-13.03,15.66,0,24.16,21.37,24.16,41.58Z"/>
      <path class="cls-1" d="M492.04,126.34c-1.46,0-2.2-.15-2.2-.59s2.2-1.46,6.73-2.64c23.28-6.29,48.31-24.74,48.31-54.02,0-21.96-15.96-40.84-40.84-40.84h-1.17c-1.46,0-2.93.15-4.39.15,3.81,3.37,6.29,11.13,6.29,20.79,0,28.11-22.54,63.54-38.06,63.54-8.34,0-11.42-10.98-16.98-19.03-2.34-3.51-3.51-8.34-3.51-13.91,0-23.86,20.5-57.39,59.29-57.39,33.82,0,51.97,22.98,51.97,47.29,0,13.32-5.42,27.08-16.84,37.62-15.66,14.49-40.55,19.03-48.6,19.03ZM454.7,74.66c0,14.49,8.2,22.54,12.88,22.54,10.1,0,30.16-30.89,30.16-55.63,0-3.81-.59-12-4.68-12-.29,0-.73,0-1.17.15-.59.15-1.03.15-1.46.15-23.13,6.73-35.72,27.23-35.72,44.8Z"/>
      <path class="cls-1" d="M658.05,79.78c0,.88-.59,1.61-2.78,1.61h-20.35v7.76c6.88.44,21.08,2.05,21.08,11.42,0,3.22-2.34,5.86-5.42,5.86-1.9,0-4.1-1.03-6-3.81-2.93-4.1-6-8.78-9.66-11.86,0,12.44.29,26.94.88,36.89v.15c0,4.54-5.71,5.27-6.88,5.27-2.78,0-5.27-1.32-5.27-4.54v-.44c.59-8.05,1.02-19.18,1.17-29.86-15.96,19.18-33.67,23.42-34.84,23.42-.44,0-.73-.15-.73-.44s.73-1.03,2.2-2.05c10.25-6.88,26.2-24.59,32.5-37.62-6.29.15-12.44.44-20.93,1.32h-.15c-2.2,0-6.15-5.27-6.15-7.03,11.57,1.46,21.08,1.9,28.11,2.05,0-8.93-.44-15.37-1.46-19.18-.15-.29-.15-.59-.15-.88s.15-.44.88-.44c2.93,0,17.42,3.07,17.42,5.86,0,.88-.88,1.76-2.34,2.49-3.22,1.61-3.51.59-3.81,5.27l-.29,6.88h3.07c.73,0,1.61-.44,2.05-1.17,4.68-6.88,5.71-7.32,6.59-7.32,2.05,0,11.27,7.32,11.27,10.39ZM721.58,46.7c0,1.17-12.44,4.98-16.4,9.08-.73.88-1.46,1.17-2.34,1.17-5.86,0-29.42-13.32-38.5-30.89v6.29c0,10.1.29,20.35.59,26.2v.15c0,3.51-3.66,5.71-7.32,5.71-2.78,0-5.27-1.46-5.27-4.98v-.59c.59-6.15.73-15.52.88-24.16-17.42,15.81-33.23,22.4-52.12,25.91-.73.15-1.32.15-1.9.15-.88,0-1.32-.15-1.32-.44,0-.44.88-1.17,2.63-1.76,16.1-5.71,34.11-18.74,48.31-34.84h-3.07c-7.47,0-19.62.15-31.77,1.46h-.15c-2.49,0-6.59-5.56-6.59-7.32,13.91,1.76,31.33,2.34,39.09,2.34h6.88v-3.07c0-5.27-.29-9.81-1.46-15.23-.15-.59-.29-1.02-.29-1.17s.15-.29.44-.29c.44,0,18.45,1.46,18.45,4.83,0,1.03-1.17,2.05-3.07,3.07-1.46.73-2.34.88-2.49,3.66l-.44,8.2h22.25c.88,0,1.76-.59,2.2-1.32.15-.29,6.29-9.81,8.93-9.81,2.93,0,13.62,9.37,13.62,12.88,0,.88-.59,1.76-2.93,1.76h-42.6c10.25,10.98,31.18,20.5,55.04,22.69.59,0,.73.15.73.29ZM731.1,112.72c0,1.17-11.42,2.93-14.93,6.29-.88.88-1.76,1.32-2.49,1.32-.59,0-1.03-.15-1.46-.44-9.95-5.27-19.47-21.23-23.42-34.55v5.42c0,12.44.44,26.79.88,36.6v.15c0,3.37-3.81,5.27-7.03,5.27-2.93,0-5.42-1.32-5.42-4.54v-.44c.59-7.91,1.02-19.18,1.17-29.72-14.93,19.32-33.67,23.57-34.4,23.57-.44,0-.73-.15-.73-.29,0-.44.73-1.17,2.34-2.2,12.88-8.64,27.08-27.38,31.33-37.48-3.22.15-6.88.59-11.86,1.17h-.15c-2.2,0-6.29-5.27-6.29-7.03,7.76,1.17,14.2,1.61,19.76,1.9,0-13.62-1.17-18.01-1.46-19.03-.15-.29-.15-.59-.15-.88s.15-.44.88-.44c.88,0,17.71,2.64,17.71,5.86,0,.73-.88,1.61-2.34,2.34-3.22,1.61-3.51.59-3.81,5.27l-.29,7.03h10.39c.88,0,2.05-.44,2.49-1.17,1.9-2.78,3.81-6,6.44-8.2.29-.29.88-.44,1.46-.44,2.78,0,13.47,8.93,13.47,11.56,0,.88-.73,1.76-3.51,1.76h-30.3c5.86,11.71,23.42,25.77,40.99,30.89.59.15.73.29.73.44Z"/>
    </g>
  </g>
</svg>